<svg width="23" height="27" viewBox="0 0 23 27" fill="none" xmlns="http://www.w3.org/2000/svg">
<path fill-rule="evenodd" clip-rule="evenodd" d="M11.5 25.5938C17.0672 25.5938 21.5802 21.1236 21.5802 15.6094C21.5802 10.0952 17.0672 5.625 11.5 5.625C5.93283 5.625 1.41975 10.0952 1.41975 15.6094C1.41975 21.1236 5.93283 25.5938 11.5 25.5938ZM11.5 27C17.8513 27 23 21.9002 23 15.6094C23 9.31851 17.8513 4.21875 11.5 4.21875C5.14873 4.21875 0 9.31851 0 15.6094C0 21.9002 5.14873 27 11.5 27Z" fill="#29A19C"/>
<path fill-rule="evenodd" clip-rule="evenodd" d="M19.0235 15.7429L18.4557 15.733C18.4564 15.6919 18.4568 15.6507 18.4568 15.6094C18.4568 15.5681 18.4564 15.5268 18.4557 15.4857L19.0235 15.4758C19.0243 15.5203 19.0247 15.5648 19.0247 15.6094C19.0247 15.654 19.0243 15.6985 19.0235 15.7429ZM18.504 12.8797L17.9756 13.0858C17.9453 13.0094 17.9136 12.9337 17.8805 12.8587L18.4011 12.6339C18.4369 12.7151 18.4712 12.797 18.504 12.8797ZM16.9149 10.4341L16.5063 10.8248C16.4487 10.7657 16.3902 10.7077 16.3306 10.6507L16.7249 10.246C16.7894 10.3076 16.8527 10.3703 16.9149 10.4341ZM14.504 8.77387L14.2771 9.28952C14.2014 9.25682 14.1249 9.22543 14.0478 9.19536L14.2559 8.67198C14.3394 8.70452 14.4221 8.73849 14.504 8.77387ZM11.6348 8.15742L11.6248 8.71984C11.5833 8.71911 11.5417 8.71875 11.5 8.71875C11.4583 8.71875 11.4167 8.71911 11.3752 8.71984L11.3652 8.15742C11.41 8.15664 11.455 8.15625 11.5 8.15625C11.545 8.15625 11.59 8.15664 11.6348 8.15742ZM8.74409 8.67198L8.95217 9.19536C8.87508 9.22543 8.79865 9.25682 8.72293 9.28952L8.496 8.77388C8.57795 8.7385 8.66065 8.70452 8.74409 8.67198ZM6.27506 10.246L6.66944 10.6507C6.60984 10.7077 6.55126 10.7657 6.49373 10.8248L6.08511 10.4341C6.1473 10.3703 6.21063 10.3076 6.27506 10.246ZM4.59887 12.6339L5.11946 12.8587C5.08645 12.9337 5.05475 13.0094 5.0244 13.0858L4.49599 12.8797C4.52884 12.797 4.56315 12.7151 4.59887 12.6339ZM3.97649 15.4758C3.97571 15.5203 3.97531 15.5648 3.97531 15.6094C3.97531 15.654 3.97571 15.6985 3.97649 15.7429L4.54431 15.733C4.54358 15.6919 4.54321 15.6507 4.54321 15.6094C4.54321 15.5681 4.54358 15.5268 4.54431 15.4857L3.97649 15.4758ZM4.49599 18.3391L5.0244 18.133C5.05475 18.2093 5.08645 18.285 5.11946 18.36L4.59887 18.5848C4.56315 18.5036 4.52884 18.4217 4.49599 18.3391ZM6.08511 20.7846L6.49373 20.394C6.55126 20.453 6.60984 20.5111 6.66944 20.568L6.27506 20.9728C6.21063 20.9112 6.1473 20.8484 6.08511 20.7846ZM8.496 22.4449L8.72293 21.9292C8.79865 21.9619 8.87508 21.9933 8.95217 22.0234L8.74409 22.5468C8.66065 22.5142 8.57795 22.4803 8.496 22.4449ZM11.3652 23.0613L11.3752 22.4989C11.4167 22.4996 11.4583 22.5 11.5 22.5C11.5417 22.5 11.5833 22.4996 11.6248 22.4989L11.6348 23.0613C11.59 23.0621 11.545 23.0625 11.5 23.0625C11.455 23.0625 11.41 23.0621 11.3652 23.0613ZM14.2559 22.5468L14.0478 22.0234C14.1249 21.9933 14.2014 21.9619 14.2771 21.9292L14.504 22.4449C14.4221 22.4803 14.3394 22.5142 14.2559 22.5468ZM16.7249 20.9728L16.3306 20.568C16.3902 20.5111 16.4487 20.453 16.5063 20.394L16.9149 20.7846C16.8527 20.8484 16.7894 20.9112 16.7249 20.9728ZM18.4011 18.5848L17.8805 18.36C17.9136 18.285 17.9453 18.2093 17.9756 18.133L18.504 18.3391C18.4712 18.4217 18.4369 18.5036 18.4011 18.5848Z" fill="#A3F7BF"/>
<path d="M17.1499 9.84061C17.415 9.64299 17.7486 9.9792 17.5445 10.2383L12.8811 16.1595L11.0741 14.3696L17.1499 9.84061Z" fill="#A3F7BF"/>
<path d="M13.3457 15.6094C13.3457 14.5997 12.5193 13.7813 11.5 13.7813C10.4807 13.7813 9.65433 14.5997 9.65433 15.6094C9.65433 16.619 10.4807 17.4375 11.5 17.4375C12.5193 17.4375 13.3457 16.619 13.3457 15.6094Z" fill="#29A19C"/>
<path d="M11.3262 7.34796C11.3888 7.04411 11.829 7.04947 11.884 7.35476L13.3457 15.4688H9.65433L11.3262 7.34796Z" fill="#29A19C"/>
<path d="M6.53087 1.54688C6.53087 0.69256 7.23008 0 8.0926 0H14.9074C15.7699 0 16.4691 0.69256 16.4691 1.54688V1.54688C16.4691 2.40119 15.7699 3.09375 14.9074 3.09375H8.0926C7.23008 3.09375 6.53087 2.40119 6.53087 1.54688V1.54688Z" fill="#A3F7BF"/>
<path d="M0.283951 5.34375C0.283951 5.03309 0.538209 4.78125 0.851852 4.78125H2.03637C2.54232 4.78125 2.7957 5.38714 2.43794 5.7415L1.25342 6.91475C0.895662 7.26911 0.283951 7.01814 0.283951 6.51701V5.34375Z" fill="#29A19C"/>
<path d="M22.716 5.34375C22.716 5.03309 22.4618 4.78125 22.1481 4.78125H20.9636C20.4577 4.78125 20.2043 5.38714 20.5621 5.7415L21.7466 6.91475C22.1043 7.26911 22.716 7.01814 22.716 6.51701V5.34375Z" fill="#29A19C"/>
</svg>
